<?xml version="1.0" encoding="UTF-8" standalone="no"?>
<!DOCTYPE svg PUBLIC "-//W3C//DTD SVG 1.1//EN"
 "http://www.w3.org/Graphics/SVG/1.1/DTD/svg11.dtd">
<!-- Generated by graphviz version 2.36.0 (20140111.2315)
 -->
<!-- Title: %3 Pages: 1 -->
<svg xmlns="http://www.w3.org/2000/svg" xmlns:xlink="http://www.w3.org/1999/xlink">
 viewBox="0.00 0.00 287.00 760.00" xmlns="http://www.w3.org/2000/svg" xmlns:xlink="http://www.w3.org/1999/xlink">
<script xlink:href="SVGPan.js"/>
<g id="viewport" class="graph" transform="scale(1 1) rotate(0) translate(4 756)">
<title>%3</title>
<polygon fill="white" stroke="none" points="-4,4 -4,-756 283,-756 283,4 -4,4"/>
<!-- 1 -->
<g id="node1" class="node"><title>1</title>
<ellipse fill="#0000ff" stroke="black" cx="27" cy="-725" rx="27" ry="27"/>
<text text-anchor="middle" x="27" y="-721.3" font-family="Times,serif" font-size="14.00" fill="#ffffff">1</text>
</g>
<!-- Synchro1 -->
<g id="node5" class="node"><title>Synchro1</title>
<polygon fill="#ff0000" stroke="black" points="95,-627.816 95,-650.184 79.1838,-666 56.8162,-666 41,-650.184 41,-627.816 56.8162,-612 79.1838,-612 95,-627.816"/>
<text text-anchor="middle" x="68" y="-635.3" font-family="Times,serif" font-size="14.00" fill="#ffffff">sync</text>
</g>
<!-- 1&#45;&gt;Synchro1 -->
<g id="edge1" class="edge"><title>1&#45;&gt;Synchro1</title>
<path fill="none" stroke="black" d="M38.6393,-700.154C42.5685,-692.104 47.0356,-682.952 51.2788,-674.258"/>
<polygon fill="black" stroke="black" points="54.5183,-675.6 55.7594,-665.078 48.2277,-672.53 54.5183,-675.6"/>
<text text-anchor="middle" x="59" y="-678.3" font-family="Times,serif" font-size="14.00">d2</text>
</g>
<!-- 2 -->
<g id="node2" class="node"><title>2</title>
<ellipse fill="#0000ff" stroke="black" cx="140" cy="-639" rx="27" ry="27"/>
<text text-anchor="middle" x="140" y="-635.3" font-family="Times,serif" font-size="14.00" fill="#ffffff">2</text>
</g>
<!-- Synchro2 -->
<g id="node7" class="node"><title>Synchro2</title>
<polygon fill="#ff0000" stroke="black" points="140,-541.816 140,-564.184 124.184,-580 101.816,-580 86,-564.184 86,-541.816 101.816,-526 124.184,-526 140,-541.816"/>
<text text-anchor="middle" x="113" y="-549.3" font-family="Times,serif" font-size="14.00" fill="#ffffff">sync</text>
</g>
<!-- 2&#45;&gt;Synchro2 -->
<g id="edge3" class="edge"><title>2&#45;&gt;Synchro2</title>
<path fill="none" stroke="black" d="M131.899,-612.797C129.562,-605.526 126.966,-597.45 124.466,-589.671"/>
<polygon fill="black" stroke="black" points="127.768,-588.508 121.376,-580.058 121.104,-590.65 127.768,-588.508"/>
<text text-anchor="middle" x="136" y="-592.3" font-family="Times,serif" font-size="14.00">d4</text>
</g>
<!-- 3 -->
<g id="node3" class="node"><title>3</title>
<ellipse fill="#0000ff" stroke="black" cx="185" cy="-553" rx="27" ry="27"/>
<text text-anchor="middle" x="185" y="-549.3" font-family="Times,serif" font-size="14.00" fill="#ffffff">3</text>
</g>
<!-- Synchro3 -->
<g id="node8" class="node"><title>Synchro3</title>
<polygon fill="#ff0000" stroke="black" points="185,-455.816 185,-478.184 169.184,-494 146.816,-494 131,-478.184 131,-455.816 146.816,-440 169.184,-440 185,-455.816"/>
<text text-anchor="middle" x="158" y="-463.3" font-family="Times,serif" font-size="14.00" fill="#ffffff">sync</text>
</g>
<!-- 3&#45;&gt;Synchro3 -->
<g id="edge5" class="edge"><title>3&#45;&gt;Synchro3</title>
<path fill="none" stroke="black" d="M176.899,-526.797C174.562,-519.526 171.966,-511.45 169.466,-503.671"/>
<polygon fill="black" stroke="black" points="172.768,-502.508 166.376,-494.058 166.104,-504.65 172.768,-502.508"/>
<text text-anchor="middle" x="180" y="-506.3" font-family="Times,serif" font-size="14.00">d6</text>
</g>
<!-- 4 -->
<g id="node4" class="node"><title>4</title>
<ellipse fill="#0000ff" stroke="black" cx="230" cy="-467" rx="27" ry="27"/>
<text text-anchor="middle" x="230" y="-463.3" font-family="Times,serif" font-size="14.00" fill="#ffffff">4</text>
</g>
<!-- Synchro4 -->
<g id="node9" class="node"><title>Synchro4</title>
<polygon fill="#ff0000" stroke="black" points="230,-369.816 230,-392.184 214.184,-408 191.816,-408 176,-392.184 176,-369.816 191.816,-354 214.184,-354 230,-369.816"/>
<text text-anchor="middle" x="203" y="-377.3" font-family="Times,serif" font-size="14.00" fill="#ffffff">sync</text>
</g>
<!-- 4&#45;&gt;Synchro4 -->
<g id="edge7" class="edge"><title>4&#45;&gt;Synchro4</title>
<path fill="none" stroke="black" d="M221.899,-440.797C219.562,-433.526 216.966,-425.45 214.466,-417.671"/>
<polygon fill="black" stroke="black" points="217.768,-416.508 211.376,-408.058 211.104,-418.65 217.768,-416.508"/>
<text text-anchor="middle" x="225" y="-420.3" font-family="Times,serif" font-size="14.00">d8</text>
</g>
<!-- Synchro1&#45;&gt;Synchro2 -->
<g id="edge4" class="edge"><title>Synchro1&#45;&gt;Synchro2</title>
<path fill="none" stroke="black" d="M81.0159,-613.704C85.4469,-605.432 90.4786,-596.04 95.2178,-587.193"/>
<polygon fill="black" stroke="black" points="98.3763,-588.709 100.013,-578.242 92.2059,-585.404 98.3763,-588.709"/>
<text text-anchor="middle" x="102" y="-592.3" font-family="Times,serif" font-size="14.00">d4</text>
</g>
<!-- Synchro0 -->
<g id="node6" class="node"><title>Synchro0</title>
<ellipse fill="none" stroke="black" cx="110" cy="-725" rx="37.3682" ry="27"/>
<text text-anchor="middle" x="110" y="-721.3" font-family="Times,serif" font-size="14.00">Synchro0</text>
</g>
<!-- Synchro0&#45;&gt;Synchro1 -->
<g id="edge2" class="edge"><title>Synchro0&#45;&gt;Synchro1</title>
<path fill="none" stroke="black" d="M97.6258,-699.252C93.6453,-691.291 89.1645,-682.329 84.9156,-673.831"/>
<polygon fill="black" stroke="black" points="88.0336,-672.241 80.4309,-664.862 81.7726,-675.371 88.0336,-672.241"/>
<text text-anchor="middle" x="100" y="-678.3" font-family="Times,serif" font-size="14.00">d2</text>
</g>
<!-- Synchro2&#45;&gt;Synchro3 -->
<g id="edge6" class="edge"><title>Synchro2&#45;&gt;Synchro3</title>
<path fill="none" stroke="black" d="M126.016,-527.704C130.447,-519.432 135.479,-510.04 140.218,-501.193"/>
<polygon fill="black" stroke="black" points="143.376,-502.709 145.013,-492.242 137.206,-499.404 143.376,-502.709"/>
<text text-anchor="middle" x="147" y="-506.3" font-family="Times,serif" font-size="14.00">d6</text>
</g>
<!-- Synchro3&#45;&gt;Synchro4 -->
<g id="edge8" class="edge"><title>Synchro3&#45;&gt;Synchro4</title>
<path fill="none" stroke="black" d="M171.016,-441.704C175.447,-433.432 180.479,-424.04 185.218,-415.193"/>
<polygon fill="black" stroke="black" points="188.376,-416.709 190.013,-406.242 182.206,-413.404 188.376,-416.709"/>
<text text-anchor="middle" x="191" y="-420.3" font-family="Times,serif" font-size="14.00">d8</text>
</g>
<!-- 5 -->
<g id="node10" class="node"><title>5</title>
<ellipse fill="#ffff00" stroke="black" cx="140" cy="-309" rx="27" ry="27"/>
<text text-anchor="middle" x="140" y="-305.3" font-family="Times,serif" font-size="14.00" fill="#000000">5</text>
</g>
<!-- Synchro4&#45;&gt;5 -->
<g id="edge9" class="edge"><title>Synchro4&#45;&gt;5</title>
<path fill="none" stroke="black" d="M185.115,-360.128C178.81,-353.123 171.605,-345.116 164.83,-337.589"/>
<polygon fill="black" stroke="black" points="167.003,-334.771 157.711,-329.679 161.8,-339.454 167.003,-334.771"/>
</g>
<!-- 6 -->
<g id="node11" class="node"><title>6</title>
<ellipse fill="#ffff00" stroke="black" cx="252" cy="-247" rx="27" ry="27"/>
<text text-anchor="middle" x="252" y="-243.3" font-family="Times,serif" font-size="14.00" fill="#000000">6</text>
</g>
<!-- Synchro4&#45;&gt;6 -->
<g id="edge10" class="edge"><title>Synchro4&#45;&gt;6</title>
<path fill="none" stroke="black" d="M217.618,-356.8C221.35,-350.241 225.117,-342.984 228,-336 234.889,-319.31 240.403,-300.029 244.399,-283.777"/>
<polygon fill="black" stroke="black" points="247.913,-284.129 246.806,-273.592 241.1,-282.52 247.913,-284.129"/>
</g>
<!-- Synchro5 -->
<g id="node12" class="node"><title>Synchro5</title>
<polygon fill="#ff0000" stroke="black" points="216,-173.816 216,-196.184 200.184,-212 177.816,-212 162,-196.184 162,-173.816 177.816,-158 200.184,-158 216,-173.816"/>
<text text-anchor="middle" x="189" y="-181.3" font-family="Times,serif" font-size="14.00" fill="#ffffff">sync</text>
</g>
<!-- Synchro4&#45;&gt;Synchro5 -->
<g id="edge12" class="edge"><title>Synchro4&#45;&gt;Synchro5</title>
<path fill="none" stroke="black" d="M201.112,-353.836C198.663,-319.897 194.378,-260.52 191.616,-222.253"/>
<polygon fill="black" stroke="black" points="195.091,-221.78 190.88,-212.058 188.109,-222.284 195.091,-221.78"/>
<text text-anchor="middle" x="209.5" y="-305.3" font-family="Times,serif" font-size="14.00">d12</text>
</g>
<!-- 5&#45;&gt;Synchro5 -->
<g id="edge11" class="edge"><title>5&#45;&gt;Synchro5</title>
<path fill="none" stroke="black" d="M146.265,-282.733C151.134,-264.802 158.629,-240.396 168,-220 168.38,-219.173 168.777,-218.341 169.186,-217.507"/>
<polygon fill="black" stroke="black" points="172.312,-219.084 173.976,-208.621 166.15,-215.763 172.312,-219.084"/>
<text text-anchor="middle" x="178.5" y="-243.3" font-family="Times,serif" font-size="14.00">d12</text>
</g>
<!-- Synchro6 -->
<g id="node13" class="node"><title>Synchro6</title>
<polygon fill="#ff0000" stroke="black" points="254,-87.8162 254,-110.184 238.184,-126 215.816,-126 200,-110.184 200,-87.8162 215.816,-72 238.184,-72 254,-87.8162"/>
<text text-anchor="middle" x="227" y="-95.3" font-family="Times,serif" font-size="14.00" fill="#ffffff">sync</text>
</g>
<!-- 6&#45;&gt;Synchro6 -->
<g id="edge13" class="edge"><title>6&#45;&gt;Synchro6</title>
<path fill="none" stroke="black" d="M249.165,-220.052C246.71,-199.305 242.74,-169.277 236.272,-136.173"/>
<polygon fill="black" stroke="black" points="239.687,-135.399 234.283,-126.286 232.824,-136.78 239.687,-135.399"/>
<text text-anchor="middle" x="257.5" y="-181.3" font-family="Times,serif" font-size="14.00">d14</text>
</g>
<!-- Synchro5&#45;&gt;Synchro6 -->
<g id="edge14" class="edge"><title>Synchro5&#45;&gt;Synchro6</title>
<path fill="none" stroke="black" d="M200.608,-158.341C203.928,-151 207.606,-142.871 211.135,-135.07"/>
<polygon fill="black" stroke="black" points="214.4,-136.345 215.332,-125.792 208.022,-133.46 214.4,-136.345"/>
<text text-anchor="middle" x="221.5" y="-138.3" font-family="Times,serif" font-size="14.00">d14</text>
</g>
<!-- 7 -->
<g id="node14" class="node"><title>7</title>
<ellipse fill="#00ff00" stroke="black" cx="227" cy="-27" rx="27" ry="27"/>
<text text-anchor="middle" x="227" y="-23.3" font-family="Times,serif" font-size="14.00" fill="#000000">7</text>
</g>
<!-- Synchro6&#45;&gt;7 -->
<g id="edge15" class="edge"><title>Synchro6&#45;&gt;7</title>
<path fill="none" stroke="black" d="M227,-71.9346C227,-69.5076 227,-67.0191 227,-64.5203"/>
<polygon fill="black" stroke="black" points="230.5,-64.3206 227,-54.3206 223.5,-64.3207 230.5,-64.3206"/>
</g>
</g>
</svg>
