<?xml version="1.0" encoding="UTF-8" standalone="no"?>
<!DOCTYPE svg PUBLIC "-//W3C//DTD SVG 1.1//EN"
 "http://www.w3.org/Graphics/SVG/1.1/DTD/svg11.dtd">
<!-- Generated by graphviz version 2.36.0 (20140111.2315)
 -->
<!-- Title: %3 Pages: 1 -->
<svg xmlns="http://www.w3.org/2000/svg" xmlns:xlink="http://www.w3.org/1999/xlink">
 viewBox="0.00 0.00 778.00 1830.00" xmlns="http://www.w3.org/2000/svg" xmlns:xlink="http://www.w3.org/1999/xlink">
<script xlink:href="SVGPan.js"/>
<g id="viewport" class="graph" transform="scale(1 1) rotate(0) translate(4 1826)">
<title>%3</title>
<polygon fill="white" stroke="none" points="-4,4 -4,-1826 774,-1826 774,4 -4,4"/>
<!-- 1 -->
<g id="node1" class="node"><title>1</title>
<ellipse fill="#0000ff" stroke="black" cx="27" cy="-1795" rx="27" ry="27"/>
<text text-anchor="middle" x="27" y="-1791.3" font-family="Times,serif" font-size="14.00" fill="#ffffff">1</text>
</g>
<!-- Synchro1 -->
<g id="node15" class="node"><title>Synchro1</title>
<polygon fill="#ff0000" stroke="black" points="95,-1697.82 95,-1720.18 79.1838,-1736 56.8162,-1736 41,-1720.18 41,-1697.82 56.8162,-1682 79.1838,-1682 95,-1697.82"/>
<text text-anchor="middle" x="68" y="-1705.3" font-family="Times,serif" font-size="14.00" fill="#ffffff">sync</text>
</g>
<!-- 1&#45;&gt;Synchro1 -->
<g id="edge1" class="edge"><title>1&#45;&gt;Synchro1</title>
<path fill="none" stroke="black" d="M38.6393,-1770.15C42.5685,-1762.1 47.0356,-1752.95 51.2788,-1744.26"/>
<polygon fill="black" stroke="black" points="54.5183,-1745.6 55.7594,-1735.08 48.2277,-1742.53 54.5183,-1745.6"/>
<text text-anchor="middle" x="59" y="-1748.3" font-family="Times,serif" font-size="14.00">d1</text>
</g>
<!-- 2 -->
<g id="node2" class="node"><title>2</title>
<ellipse fill="#0000ff" stroke="black" cx="140" cy="-1709" rx="27" ry="27"/>
<text text-anchor="middle" x="140" y="-1705.3" font-family="Times,serif" font-size="14.00" fill="#ffffff">2</text>
</g>
<!-- Synchro2 -->
<g id="node17" class="node"><title>Synchro2</title>
<polygon fill="#ff0000" stroke="black" points="140,-1611.82 140,-1634.18 124.184,-1650 101.816,-1650 86,-1634.18 86,-1611.82 101.816,-1596 124.184,-1596 140,-1611.82"/>
<text text-anchor="middle" x="113" y="-1619.3" font-family="Times,serif" font-size="14.00" fill="#ffffff">sync</text>
</g>
<!-- 2&#45;&gt;Synchro2 -->
<g id="edge3" class="edge"><title>2&#45;&gt;Synchro2</title>
<path fill="none" stroke="black" d="M131.899,-1682.8C129.562,-1675.53 126.966,-1667.45 124.466,-1659.67"/>
<polygon fill="black" stroke="black" points="127.768,-1658.51 121.376,-1650.06 121.104,-1660.65 127.768,-1658.51"/>
<text text-anchor="middle" x="136" y="-1662.3" font-family="Times,serif" font-size="14.00">d3</text>
</g>
<!-- 3 -->
<g id="node3" class="node"><title>3</title>
<ellipse fill="#0000ff" stroke="black" cx="185" cy="-1623" rx="27" ry="27"/>
<text text-anchor="middle" x="185" y="-1619.3" font-family="Times,serif" font-size="14.00" fill="#ffffff">3</text>
</g>
<!-- Synchro3 -->
<g id="node18" class="node"><title>Synchro3</title>
<polygon fill="#ff0000" stroke="black" points="185,-1525.82 185,-1548.18 169.184,-1564 146.816,-1564 131,-1548.18 131,-1525.82 146.816,-1510 169.184,-1510 185,-1525.82"/>
<text text-anchor="middle" x="158" y="-1533.3" font-family="Times,serif" font-size="14.00" fill="#ffffff">sync</text>
</g>
<!-- 3&#45;&gt;Synchro3 -->
<g id="edge5" class="edge"><title>3&#45;&gt;Synchro3</title>
<path fill="none" stroke="black" d="M176.899,-1596.8C174.562,-1589.53 171.966,-1581.45 169.466,-1573.67"/>
<polygon fill="black" stroke="black" points="172.768,-1572.51 166.376,-1564.06 166.104,-1574.65 172.768,-1572.51"/>
<text text-anchor="middle" x="181" y="-1576.3" font-family="Times,serif" font-size="14.00">d5</text>
</g>
<!-- 4 -->
<g id="node4" class="node"><title>4</title>
<ellipse fill="#0000ff" stroke="black" cx="230" cy="-1537" rx="27" ry="27"/>
<text text-anchor="middle" x="230" y="-1533.3" font-family="Times,serif" font-size="14.00" fill="#ffffff">4</text>
</g>
<!-- Synchro4 -->
<g id="node19" class="node"><title>Synchro4</title>
<polygon fill="#ff0000" stroke="black" points="230,-1439.82 230,-1462.18 214.184,-1478 191.816,-1478 176,-1462.18 176,-1439.82 191.816,-1424 214.184,-1424 230,-1439.82"/>
<text text-anchor="middle" x="203" y="-1447.3" font-family="Times,serif" font-size="14.00" fill="#ffffff">sync</text>
</g>
<!-- 4&#45;&gt;Synchro4 -->
<g id="edge7" class="edge"><title>4&#45;&gt;Synchro4</title>
<path fill="none" stroke="black" d="M221.899,-1510.8C219.562,-1503.53 216.966,-1495.45 214.466,-1487.67"/>
<polygon fill="black" stroke="black" points="217.768,-1486.51 211.376,-1478.06 211.104,-1488.65 217.768,-1486.51"/>
<text text-anchor="middle" x="226" y="-1490.3" font-family="Times,serif" font-size="14.00">d7</text>
</g>
<!-- 5 -->
<g id="node5" class="node"><title>5</title>
<ellipse fill="#0000ff" stroke="black" cx="275" cy="-1451" rx="27" ry="27"/>
<text text-anchor="middle" x="275" y="-1447.3" font-family="Times,serif" font-size="14.00" fill="#ffffff">5</text>
</g>
<!-- Synchro5 -->
<g id="node20" class="node"><title>Synchro5</title>
<polygon fill="#ff0000" stroke="black" points="275,-1353.82 275,-1376.18 259.184,-1392 236.816,-1392 221,-1376.18 221,-1353.82 236.816,-1338 259.184,-1338 275,-1353.82"/>
<text text-anchor="middle" x="248" y="-1361.3" font-family="Times,serif" font-size="14.00" fill="#ffffff">sync</text>
</g>
<!-- 5&#45;&gt;Synchro5 -->
<g id="edge9" class="edge"><title>5&#45;&gt;Synchro5</title>
<path fill="none" stroke="black" d="M266.899,-1424.8C264.562,-1417.53 261.966,-1409.45 259.466,-1401.67"/>
<polygon fill="black" stroke="black" points="262.768,-1400.51 256.376,-1392.06 256.104,-1402.65 262.768,-1400.51"/>
<text text-anchor="middle" x="270" y="-1404.3" font-family="Times,serif" font-size="14.00">d9</text>
</g>
<!-- 6 -->
<g id="node6" class="node"><title>6</title>
<ellipse fill="#0000ff" stroke="black" cx="320" cy="-1365" rx="27" ry="27"/>
<text text-anchor="middle" x="320" y="-1361.3" font-family="Times,serif" font-size="14.00" fill="#ffffff">6</text>
</g>
<!-- Synchro6 -->
<g id="node21" class="node"><title>Synchro6</title>
<polygon fill="#ff0000" stroke="black" points="318,-1267.82 318,-1290.18 302.184,-1306 279.816,-1306 264,-1290.18 264,-1267.82 279.816,-1252 302.184,-1252 318,-1267.82"/>
<text text-anchor="middle" x="291" y="-1275.3" font-family="Times,serif" font-size="14.00" fill="#ffffff">sync</text>
</g>
<!-- 6&#45;&gt;Synchro6 -->
<g id="edge11" class="edge"><title>6&#45;&gt;Synchro6</title>
<path fill="none" stroke="black" d="M311.456,-1339.25C308.89,-1331.82 306.023,-1323.52 303.267,-1315.53"/>
<polygon fill="black" stroke="black" points="306.559,-1314.34 299.987,-1306.03 299.942,-1316.63 306.559,-1314.34"/>
<text text-anchor="middle" x="318.5" y="-1318.3" font-family="Times,serif" font-size="14.00">d11</text>
</g>
<!-- 7 -->
<g id="node7" class="node"><title>7</title>
<ellipse fill="#0000ff" stroke="black" cx="363" cy="-1279" rx="27" ry="27"/>
<text text-anchor="middle" x="363" y="-1275.3" font-family="Times,serif" font-size="14.00" fill="#ffffff">7</text>
</g>
<!-- Synchro7 -->
<g id="node22" class="node"><title>Synchro7</title>
<polygon fill="#ff0000" stroke="black" points="361,-1181.82 361,-1204.18 345.184,-1220 322.816,-1220 307,-1204.18 307,-1181.82 322.816,-1166 345.184,-1166 361,-1181.82"/>
<text text-anchor="middle" x="334" y="-1189.3" font-family="Times,serif" font-size="14.00" fill="#ffffff">sync</text>
</g>
<!-- 7&#45;&gt;Synchro7 -->
<g id="edge13" class="edge"><title>7&#45;&gt;Synchro7</title>
<path fill="none" stroke="black" d="M354.456,-1253.25C351.89,-1245.82 349.023,-1237.52 346.267,-1229.53"/>
<polygon fill="black" stroke="black" points="349.559,-1228.34 342.987,-1220.03 342.942,-1230.63 349.559,-1228.34"/>
<text text-anchor="middle" x="361.5" y="-1232.3" font-family="Times,serif" font-size="14.00">d13</text>
</g>
<!-- 8 -->
<g id="node8" class="node"><title>8</title>
<ellipse fill="#0000ff" stroke="black" cx="406" cy="-1193" rx="27" ry="27"/>
<text text-anchor="middle" x="406" y="-1189.3" font-family="Times,serif" font-size="14.00" fill="#ffffff">8</text>
</g>
<!-- Synchro8 -->
<g id="node23" class="node"><title>Synchro8</title>
<polygon fill="#ff0000" stroke="black" points="404,-1095.82 404,-1118.18 388.184,-1134 365.816,-1134 350,-1118.18 350,-1095.82 365.816,-1080 388.184,-1080 404,-1095.82"/>
<text text-anchor="middle" x="377" y="-1103.3" font-family="Times,serif" font-size="14.00" fill="#ffffff">sync</text>
</g>
<!-- 8&#45;&gt;Synchro8 -->
<g id="edge15" class="edge"><title>8&#45;&gt;Synchro8</title>
<path fill="none" stroke="black" d="M397.456,-1167.25C394.89,-1159.82 392.023,-1151.52 389.267,-1143.53"/>
<polygon fill="black" stroke="black" points="392.559,-1142.34 385.987,-1134.03 385.942,-1144.63 392.559,-1142.34"/>
<text text-anchor="middle" x="404.5" y="-1146.3" font-family="Times,serif" font-size="14.00">d15</text>
</g>
<!-- 9 -->
<g id="node9" class="node"><title>9</title>
<ellipse fill="#0000ff" stroke="black" cx="449" cy="-1107" rx="27" ry="27"/>
<text text-anchor="middle" x="449" y="-1103.3" font-family="Times,serif" font-size="14.00" fill="#ffffff">9</text>
</g>
<!-- Synchro9 -->
<g id="node24" class="node"><title>Synchro9</title>
<polygon fill="#ff0000" stroke="black" points="447,-1009.82 447,-1032.18 431.184,-1048 408.816,-1048 393,-1032.18 393,-1009.82 408.816,-994 431.184,-994 447,-1009.82"/>
<text text-anchor="middle" x="420" y="-1017.3" font-family="Times,serif" font-size="14.00" fill="#ffffff">sync</text>
</g>
<!-- 9&#45;&gt;Synchro9 -->
<g id="edge17" class="edge"><title>9&#45;&gt;Synchro9</title>
<path fill="none" stroke="black" d="M440.456,-1081.25C437.89,-1073.82 435.023,-1065.52 432.267,-1057.53"/>
<polygon fill="black" stroke="black" points="435.559,-1056.34 428.987,-1048.03 428.942,-1058.63 435.559,-1056.34"/>
<text text-anchor="middle" x="447.5" y="-1060.3" font-family="Times,serif" font-size="14.00">d17</text>
</g>
<!-- 10 -->
<g id="node10" class="node"><title>10</title>
<ellipse fill="#0000ff" stroke="black" cx="492" cy="-1021" rx="27" ry="27"/>
<text text-anchor="middle" x="492" y="-1017.3" font-family="Times,serif" font-size="14.00" fill="#ffffff">10</text>
</g>
<!-- Synchro10 -->
<g id="node25" class="node"><title>Synchro10</title>
<polygon fill="#ff0000" stroke="black" points="490,-923.816 490,-946.184 474.184,-962 451.816,-962 436,-946.184 436,-923.816 451.816,-908 474.184,-908 490,-923.816"/>
<text text-anchor="middle" x="463" y="-931.3" font-family="Times,serif" font-size="14.00" fill="#ffffff">sync</text>
</g>
<!-- 10&#45;&gt;Synchro10 -->
<g id="edge19" class="edge"><title>10&#45;&gt;Synchro10</title>
<path fill="none" stroke="black" d="M483.456,-995.252C480.89,-987.82 478.023,-979.516 475.267,-971.532"/>
<polygon fill="black" stroke="black" points="478.559,-970.342 471.987,-962.032 471.942,-972.626 478.559,-970.342"/>
<text text-anchor="middle" x="490.5" y="-974.3" font-family="Times,serif" font-size="14.00">d19</text>
</g>
<!-- 11 -->
<g id="node11" class="node"><title>11</title>
<ellipse fill="#0000ff" stroke="black" cx="535" cy="-935" rx="27" ry="27"/>
<text text-anchor="middle" x="535" y="-931.3" font-family="Times,serif" font-size="14.00" fill="#ffffff">11</text>
</g>
<!-- Synchro11 -->
<g id="node26" class="node"><title>Synchro11</title>
<polygon fill="#ff0000" stroke="black" points="533,-837.816 533,-860.184 517.184,-876 494.816,-876 479,-860.184 479,-837.816 494.816,-822 517.184,-822 533,-837.816"/>
<text text-anchor="middle" x="506" y="-845.3" font-family="Times,serif" font-size="14.00" fill="#ffffff">sync</text>
</g>
<!-- 11&#45;&gt;Synchro11 -->
<g id="edge21" class="edge"><title>11&#45;&gt;Synchro11</title>
<path fill="none" stroke="black" d="M526.456,-909.252C523.89,-901.82 521.023,-893.516 518.267,-885.532"/>
<polygon fill="black" stroke="black" points="521.559,-884.342 514.987,-876.032 514.942,-886.626 521.559,-884.342"/>
<text text-anchor="middle" x="533.5" y="-888.3" font-family="Times,serif" font-size="14.00">d21</text>
</g>
<!-- 12 -->
<g id="node12" class="node"><title>12</title>
<ellipse fill="#0000ff" stroke="black" cx="578" cy="-849" rx="27" ry="27"/>
<text text-anchor="middle" x="578" y="-845.3" font-family="Times,serif" font-size="14.00" fill="#ffffff">12</text>
</g>
<!-- Synchro12 -->
<g id="node27" class="node"><title>Synchro12</title>
<polygon fill="#ff0000" stroke="black" points="576,-751.816 576,-774.184 560.184,-790 537.816,-790 522,-774.184 522,-751.816 537.816,-736 560.184,-736 576,-751.816"/>
<text text-anchor="middle" x="549" y="-759.3" font-family="Times,serif" font-size="14.00" fill="#ffffff">sync</text>
</g>
<!-- 12&#45;&gt;Synchro12 -->
<g id="edge23" class="edge"><title>12&#45;&gt;Synchro12</title>
<path fill="none" stroke="black" d="M569.456,-823.252C566.89,-815.82 564.023,-807.516 561.267,-799.532"/>
<polygon fill="black" stroke="black" points="564.559,-798.342 557.987,-790.032 557.942,-800.626 564.559,-798.342"/>
<text text-anchor="middle" x="576.5" y="-802.3" font-family="Times,serif" font-size="14.00">d23</text>
</g>
<!-- 13 -->
<g id="node13" class="node"><title>13</title>
<ellipse fill="#0000ff" stroke="black" cx="621" cy="-763" rx="27" ry="27"/>
<text text-anchor="middle" x="621" y="-759.3" font-family="Times,serif" font-size="14.00" fill="#ffffff">13</text>
</g>
<!-- Synchro13 -->
<g id="node28" class="node"><title>Synchro13</title>
<polygon fill="#ff0000" stroke="black" points="619,-665.816 619,-688.184 603.184,-704 580.816,-704 565,-688.184 565,-665.816 580.816,-650 603.184,-650 619,-665.816"/>
<text text-anchor="middle" x="592" y="-673.3" font-family="Times,serif" font-size="14.00" fill="#ffffff">sync</text>
</g>
<!-- 13&#45;&gt;Synchro13 -->
<g id="edge25" class="edge"><title>13&#45;&gt;Synchro13</title>
<path fill="none" stroke="black" d="M612.456,-737.252C609.89,-729.82 607.023,-721.516 604.267,-713.532"/>
<polygon fill="black" stroke="black" points="607.559,-712.342 600.987,-704.032 600.942,-714.626 607.559,-712.342"/>
<text text-anchor="middle" x="619.5" y="-716.3" font-family="Times,serif" font-size="14.00">d25</text>
</g>
<!-- 14 -->
<g id="node14" class="node"><title>14</title>
<ellipse fill="#0000ff" stroke="black" cx="664" cy="-677" rx="27" ry="27"/>
<text text-anchor="middle" x="664" y="-673.3" font-family="Times,serif" font-size="14.00" fill="#ffffff">14</text>
</g>
<!-- Synchro14 -->
<g id="node29" class="node"><title>Synchro14</title>
<polygon fill="#ff0000" stroke="black" points="662,-579.816 662,-602.184 646.184,-618 623.816,-618 608,-602.184 608,-579.816 623.816,-564 646.184,-564 662,-579.816"/>
<text text-anchor="middle" x="635" y="-587.3" font-family="Times,serif" font-size="14.00" fill="#ffffff">sync</text>
</g>
<!-- 14&#45;&gt;Synchro14 -->
<g id="edge27" class="edge"><title>14&#45;&gt;Synchro14</title>
<path fill="none" stroke="black" d="M655.456,-651.252C652.89,-643.82 650.023,-635.516 647.267,-627.532"/>
<polygon fill="black" stroke="black" points="650.559,-626.342 643.987,-618.032 643.942,-628.626 650.559,-626.342"/>
<text text-anchor="middle" x="662.5" y="-630.3" font-family="Times,serif" font-size="14.00">d27</text>
</g>
<!-- Synchro1&#45;&gt;Synchro2 -->
<g id="edge4" class="edge"><title>Synchro1&#45;&gt;Synchro2</title>
<path fill="none" stroke="black" d="M81.0159,-1683.7C85.4469,-1675.43 90.4786,-1666.04 95.2178,-1657.19"/>
<polygon fill="black" stroke="black" points="98.3763,-1658.71 100.013,-1648.24 92.2059,-1655.4 98.3763,-1658.71"/>
<text text-anchor="middle" x="102" y="-1662.3" font-family="Times,serif" font-size="14.00">d3</text>
</g>
<!-- Synchro0 -->
<g id="node16" class="node"><title>Synchro0</title>
<ellipse fill="none" stroke="black" cx="110" cy="-1795" rx="37.3682" ry="27"/>
<text text-anchor="middle" x="110" y="-1791.3" font-family="Times,serif" font-size="14.00">Synchro0</text>
</g>
<!-- Synchro0&#45;&gt;Synchro1 -->
<g id="edge2" class="edge"><title>Synchro0&#45;&gt;Synchro1</title>
<path fill="none" stroke="black" d="M97.6258,-1769.25C93.6453,-1761.29 89.1645,-1752.33 84.9156,-1743.83"/>
<polygon fill="black" stroke="black" points="88.0336,-1742.24 80.4309,-1734.86 81.7726,-1745.37 88.0336,-1742.24"/>
<text text-anchor="middle" x="100" y="-1748.3" font-family="Times,serif" font-size="14.00">d1</text>
</g>
<!-- Synchro2&#45;&gt;Synchro3 -->
<g id="edge6" class="edge"><title>Synchro2&#45;&gt;Synchro3</title>
<path fill="none" stroke="black" d="M126.016,-1597.7C130.447,-1589.43 135.479,-1580.04 140.218,-1571.19"/>
<polygon fill="black" stroke="black" points="143.376,-1572.71 145.013,-1562.24 137.206,-1569.4 143.376,-1572.71"/>
<text text-anchor="middle" x="147" y="-1576.3" font-family="Times,serif" font-size="14.00">d5</text>
</g>
<!-- Synchro3&#45;&gt;Synchro4 -->
<g id="edge8" class="edge"><title>Synchro3&#45;&gt;Synchro4</title>
<path fill="none" stroke="black" d="M171.016,-1511.7C175.447,-1503.43 180.479,-1494.04 185.218,-1485.19"/>
<polygon fill="black" stroke="black" points="188.376,-1486.71 190.013,-1476.24 182.206,-1483.4 188.376,-1486.71"/>
<text text-anchor="middle" x="192" y="-1490.3" font-family="Times,serif" font-size="14.00">d7</text>
</g>
<!-- Synchro4&#45;&gt;Synchro5 -->
<g id="edge10" class="edge"><title>Synchro4&#45;&gt;Synchro5</title>
<path fill="none" stroke="black" d="M216.016,-1425.7C220.447,-1417.43 225.479,-1408.04 230.218,-1399.19"/>
<polygon fill="black" stroke="black" points="233.376,-1400.71 235.013,-1390.24 227.206,-1397.4 233.376,-1400.71"/>
<text text-anchor="middle" x="237" y="-1404.3" font-family="Times,serif" font-size="14.00">d9</text>
</g>
<!-- Synchro5&#45;&gt;Synchro6 -->
<g id="edge12" class="edge"><title>Synchro5&#45;&gt;Synchro6</title>
<path fill="none" stroke="black" d="M260.669,-1339.25C264.744,-1331.29 269.332,-1322.33 273.682,-1313.83"/>
<polygon fill="black" stroke="black" points="276.832,-1315.36 278.273,-1304.86 270.601,-1312.17 276.832,-1315.36"/>
<text text-anchor="middle" x="283.5" y="-1318.3" font-family="Times,serif" font-size="14.00">d11</text>
</g>
<!-- Synchro6&#45;&gt;Synchro7 -->
<g id="edge14" class="edge"><title>Synchro6&#45;&gt;Synchro7</title>
<path fill="none" stroke="black" d="M303.669,-1253.25C307.744,-1245.29 312.332,-1236.33 316.682,-1227.83"/>
<polygon fill="black" stroke="black" points="319.832,-1229.36 321.273,-1218.86 313.601,-1226.17 319.832,-1229.36"/>
<text text-anchor="middle" x="326.5" y="-1232.3" font-family="Times,serif" font-size="14.00">d13</text>
</g>
<!-- Synchro7&#45;&gt;Synchro8 -->
<g id="edge16" class="edge"><title>Synchro7&#45;&gt;Synchro8</title>
<path fill="none" stroke="black" d="M346.669,-1167.25C350.744,-1159.29 355.332,-1150.33 359.682,-1141.83"/>
<polygon fill="black" stroke="black" points="362.832,-1143.36 364.273,-1132.86 356.601,-1140.17 362.832,-1143.36"/>
<text text-anchor="middle" x="369.5" y="-1146.3" font-family="Times,serif" font-size="14.00">d15</text>
</g>
<!-- Synchro8&#45;&gt;Synchro9 -->
<g id="edge18" class="edge"><title>Synchro8&#45;&gt;Synchro9</title>
<path fill="none" stroke="black" d="M389.669,-1081.25C393.744,-1073.29 398.332,-1064.33 402.682,-1055.83"/>
<polygon fill="black" stroke="black" points="405.832,-1057.36 407.273,-1046.86 399.601,-1054.17 405.832,-1057.36"/>
<text text-anchor="middle" x="412.5" y="-1060.3" font-family="Times,serif" font-size="14.00">d17</text>
</g>
<!-- Synchro9&#45;&gt;Synchro10 -->
<g id="edge20" class="edge"><title>Synchro9&#45;&gt;Synchro10</title>
<path fill="none" stroke="black" d="M432.669,-995.252C436.744,-987.291 441.332,-978.329 445.682,-969.831"/>
<polygon fill="black" stroke="black" points="448.832,-971.358 450.273,-960.862 442.601,-968.168 448.832,-971.358"/>
<text text-anchor="middle" x="455.5" y="-974.3" font-family="Times,serif" font-size="14.00">d19</text>
</g>
<!-- Synchro10&#45;&gt;Synchro11 -->
<g id="edge22" class="edge"><title>Synchro10&#45;&gt;Synchro11</title>
<path fill="none" stroke="black" d="M475.669,-909.252C479.744,-901.291 484.332,-892.329 488.682,-883.831"/>
<polygon fill="black" stroke="black" points="491.832,-885.358 493.273,-874.862 485.601,-882.168 491.832,-885.358"/>
<text text-anchor="middle" x="498.5" y="-888.3" font-family="Times,serif" font-size="14.00">d21</text>
</g>
<!-- Synchro11&#45;&gt;Synchro12 -->
<g id="edge24" class="edge"><title>Synchro11&#45;&gt;Synchro12</title>
<path fill="none" stroke="black" d="M518.669,-823.252C522.744,-815.291 527.332,-806.329 531.682,-797.831"/>
<polygon fill="black" stroke="black" points="534.832,-799.358 536.273,-788.862 528.601,-796.168 534.832,-799.358"/>
<text text-anchor="middle" x="541.5" y="-802.3" font-family="Times,serif" font-size="14.00">d23</text>
</g>
<!-- Synchro12&#45;&gt;Synchro13 -->
<g id="edge26" class="edge"><title>Synchro12&#45;&gt;Synchro13</title>
<path fill="none" stroke="black" d="M561.669,-737.252C565.744,-729.291 570.332,-720.329 574.682,-711.831"/>
<polygon fill="black" stroke="black" points="577.832,-713.358 579.273,-702.862 571.601,-710.168 577.832,-713.358"/>
<text text-anchor="middle" x="584.5" y="-716.3" font-family="Times,serif" font-size="14.00">d25</text>
</g>
<!-- Synchro13&#45;&gt;Synchro14 -->
<g id="edge28" class="edge"><title>Synchro13&#45;&gt;Synchro14</title>
<path fill="none" stroke="black" d="M604.669,-651.252C608.744,-643.291 613.332,-634.329 617.682,-625.831"/>
<polygon fill="black" stroke="black" points="620.832,-627.358 622.273,-616.862 614.601,-624.168 620.832,-627.358"/>
<text text-anchor="middle" x="627.5" y="-630.3" font-family="Times,serif" font-size="14.00">d27</text>
</g>
<!-- 15 -->
<g id="node30" class="node"><title>15</title>
<ellipse fill="#ffff00" stroke="black" cx="635" cy="-519" rx="27" ry="27"/>
<text text-anchor="middle" x="635" y="-515.3" font-family="Times,serif" font-size="14.00" fill="#000000">15</text>
</g>
<!-- Synchro14&#45;&gt;15 -->
<g id="edge29" class="edge"><title>Synchro14&#45;&gt;15</title>
<path fill="none" stroke="black" d="M635,-563.935C635,-561.508 635,-559.019 635,-556.52"/>
<polygon fill="black" stroke="black" points="638.5,-556.321 635,-546.321 631.5,-556.321 638.5,-556.321"/>
</g>
<!-- 16 -->
<g id="node31" class="node"><title>16</title>
<ellipse fill="#ffff00" stroke="black" cx="586" cy="-457" rx="27" ry="27"/>
<text text-anchor="middle" x="586" y="-453.3" font-family="Times,serif" font-size="14.00" fill="#000000">16</text>
</g>
<!-- Synchro14&#45;&gt;16 -->
<g id="edge30" class="edge"><title>Synchro14&#45;&gt;16</title>
<path fill="none" stroke="black" d="M616.01,-571.385C609.612,-564.063 603.07,-555.208 599,-546 591.881,-529.894 588.524,-510.677 586.991,-494.316"/>
<polygon fill="black" stroke="black" points="590.459,-493.751 586.226,-484.039 583.478,-494.271 590.459,-493.751"/>
</g>
<!-- 17 -->
<g id="node32" class="node"><title>17</title>
<ellipse fill="#ffff00" stroke="black" cx="544" cy="-333" rx="27" ry="27"/>
<text text-anchor="middle" x="544" y="-329.3" font-family="Times,serif" font-size="14.00" fill="#000000">17</text>
</g>
<!-- Synchro14&#45;&gt;17 -->
<g id="edge31" class="edge"><title>Synchro14&#45;&gt;17</title>
<path fill="none" stroke="black" d="M612.458,-575.116C602.114,-567.401 590.328,-557.244 582,-546 543.493,-494.01 539.679,-415.456 541.252,-369.994"/>
<polygon fill="black" stroke="black" points="544.749,-370.149 541.704,-360.001 537.756,-369.832 544.749,-370.149"/>
</g>
<!-- 18 -->
<g id="node33" class="node"><title>18</title>
<ellipse fill="#ffff00" stroke="black" cx="743" cy="-457" rx="27" ry="27"/>
<text text-anchor="middle" x="743" y="-453.3" font-family="Times,serif" font-size="14.00" fill="#000000">18</text>
</g>
<!-- Synchro14&#45;&gt;18 -->
<g id="edge32" class="edge"><title>Synchro14&#45;&gt;18</title>
<path fill="none" stroke="black" d="M662.392,-584.657C683.207,-578.976 710.345,-567.687 723,-546 732.155,-530.311 737.12,-510.784 739.812,-494.113"/>
<polygon fill="black" stroke="black" points="743.285,-494.551 741.212,-484.161 736.353,-493.576 743.285,-494.551"/>
</g>
<!-- Synchro15 -->
<g id="node34" class="node"><title>Synchro15</title>
<polygon fill="#ff0000" stroke="black" points="681,-383.816 681,-406.184 665.184,-422 642.816,-422 627,-406.184 627,-383.816 642.816,-368 665.184,-368 681,-383.816"/>
<text text-anchor="middle" x="654" y="-391.3" font-family="Times,serif" font-size="14.00" fill="#ffffff">sync</text>
</g>
<!-- Synchro14&#45;&gt;Synchro15 -->
<g id="edge34" class="edge"><title>Synchro14&#45;&gt;Synchro15</title>
<path fill="none" stroke="black" d="M654.569,-571.622C661.03,-564.325 667.463,-555.426 671,-546 689.116,-497.724 685.996,-479.898 673,-430 672.846,-429.407 672.678,-428.813 672.499,-428.22"/>
<polygon fill="black" stroke="black" points="675.681,-426.75 668.742,-418.744 669.174,-429.33 675.681,-426.75"/>
<text text-anchor="middle" x="693.5" y="-515.3" font-family="Times,serif" font-size="14.00">d32</text>
</g>
<!-- 15&#45;&gt;Synchro15 -->
<g id="edge33" class="edge"><title>15&#45;&gt;Synchro15</title>
<path fill="none" stroke="black" d="M639.029,-492.127C641.744,-474.696 645.363,-451.46 648.362,-432.199"/>
<polygon fill="black" stroke="black" points="651.83,-432.676 649.911,-422.256 644.914,-431.599 651.83,-432.676"/>
<text text-anchor="middle" x="658.5" y="-453.3" font-family="Times,serif" font-size="14.00">d32</text>
</g>
<!-- Synchro16 -->
<g id="node35" class="node"><title>Synchro16</title>
<polygon fill="#ff0000" stroke="black" points="667,-259.816 667,-282.184 651.184,-298 628.816,-298 613,-282.184 613,-259.816 628.816,-244 651.184,-244 667,-259.816"/>
<text text-anchor="middle" x="640" y="-267.3" font-family="Times,serif" font-size="14.00" fill="#ffffff">sync</text>
</g>
<!-- 16&#45;&gt;Synchro16 -->
<g id="edge35" class="edge"><title>16&#45;&gt;Synchro16</title>
<path fill="none" stroke="black" d="M587.238,-429.801C588.567,-412.088 591.318,-388.314 597,-368 603.074,-346.284 613.292,-323.183 622.244,-305.085"/>
<polygon fill="black" stroke="black" points="625.393,-306.614 626.781,-296.111 619.146,-303.456 625.393,-306.614"/>
<text text-anchor="middle" x="607.5" y="-391.3" font-family="Times,serif" font-size="14.00">d34</text>
</g>
<!-- Synchro17 -->
<g id="node36" class="node"><title>Synchro17</title>
<polygon fill="#ff0000" stroke="black" points="667,-173.816 667,-196.184 651.184,-212 628.816,-212 613,-196.184 613,-173.816 628.816,-158 651.184,-158 667,-173.816"/>
<text text-anchor="middle" x="640" y="-181.3" font-family="Times,serif" font-size="14.00" fill="#ffffff">sync</text>
</g>
<!-- 17&#45;&gt;Synchro17 -->
<g id="edge37" class="edge"><title>17&#45;&gt;Synchro17</title>
<path fill="none" stroke="black" d="M552.236,-307.251C558.973,-288.906 569.567,-263.764 583,-244 591.221,-231.904 602.123,-220.1 612.189,-210.332"/>
<polygon fill="black" stroke="black" points="614.787,-212.693 619.666,-203.289 609.987,-207.598 614.787,-212.693"/>
<text text-anchor="middle" x="593.5" y="-267.3" font-family="Times,serif" font-size="14.00">d36</text>
</g>
<!-- Synchro18 -->
<g id="node37" class="node"><title>Synchro18</title>
<polygon fill="#ff0000" stroke="black" points="713,-87.8162 713,-110.184 697.184,-126 674.816,-126 659,-110.184 659,-87.8162 674.816,-72 697.184,-72 713,-87.8162"/>
<text text-anchor="middle" x="686" y="-95.3" font-family="Times,serif" font-size="14.00" fill="#ffffff">sync</text>
</g>
<!-- 18&#45;&gt;Synchro18 -->
<g id="edge39" class="edge"><title>18&#45;&gt;Synchro18</title>
<path fill="none" stroke="black" d="M733.343,-431.664C724.573,-407.344 713,-368.68 713,-334 713,-334 713,-334 713,-184 713,-167.162 708.022,-149.297 702.341,-134.391"/>
<polygon fill="black" stroke="black" points="705.558,-133.011 698.551,-125.064 699.073,-135.646 705.558,-133.011"/>
<text text-anchor="middle" x="723.5" y="-267.3" font-family="Times,serif" font-size="14.00">d38</text>
</g>
<!-- Synchro15&#45;&gt;Synchro16 -->
<g id="edge36" class="edge"><title>Synchro15&#45;&gt;Synchro16</title>
<path fill="none" stroke="black" d="M650.997,-367.828C649.004,-350.46 646.36,-327.427 644.165,-308.295"/>
<polygon fill="black" stroke="black" points="647.616,-307.665 642.998,-298.129 640.661,-308.463 647.616,-307.665"/>
<text text-anchor="middle" x="659.5" y="-329.3" font-family="Times,serif" font-size="14.00">d34</text>
</g>
<!-- Synchro16&#45;&gt;Synchro17 -->
<g id="edge38" class="edge"><title>Synchro16&#45;&gt;Synchro17</title>
<path fill="none" stroke="black" d="M640,-243.882C640,-237.008 640,-229.468 640,-222.168"/>
<polygon fill="black" stroke="black" points="643.5,-222.101 640,-212.102 636.5,-222.102 643.5,-222.101"/>
<text text-anchor="middle" x="650.5" y="-224.3" font-family="Times,serif" font-size="14.00">d36</text>
</g>
<!-- Synchro17&#45;&gt;Synchro18 -->
<g id="edge40" class="edge"><title>Synchro17&#45;&gt;Synchro18</title>
<path fill="none" stroke="black" d="M653.305,-159.704C657.835,-151.432 662.978,-142.04 667.823,-133.193"/>
<polygon fill="black" stroke="black" points="670.991,-134.694 672.725,-124.242 664.852,-131.332 670.991,-134.694"/>
<text text-anchor="middle" x="677.5" y="-138.3" font-family="Times,serif" font-size="14.00">d38</text>
</g>
<!-- 19 -->
<g id="node38" class="node"><title>19</title>
<ellipse fill="#00ff00" stroke="black" cx="686" cy="-27" rx="27" ry="27"/>
<text text-anchor="middle" x="686" y="-23.3" font-family="Times,serif" font-size="14.00" fill="#000000">19</text>
</g>
<!-- Synchro18&#45;&gt;19 -->
<g id="edge41" class="edge"><title>Synchro18&#45;&gt;19</title>
<path fill="none" stroke="black" d="M686,-71.9346C686,-69.5076 686,-67.0191 686,-64.5203"/>
<polygon fill="black" stroke="black" points="689.5,-64.3206 686,-54.3206 682.5,-64.3207 689.5,-64.3206"/>
</g>
</g>
</svg>
